<?xml version="1.0" encoding="UTF-8"?>
<svg width="98px" height="29px" viewBox="0 0 98 29" version="1.1" xmlns="http://www.w3.org/2000/svg" xmlns:xlink="http://www.w3.org/1999/xlink">
    <!-- Generator: Sketch 43.1 (39012) - http://www.bohemiancoding.com/sketch -->
    <title>Page 1 Copy 2</title>
    <desc>Created with Sketch.</desc>
    <defs>
        <polygon id="path-1" points="0 28.5651 97.866 28.5651 97.866 0.0001 0 0.0001"></polygon>
    </defs>
    <g id="Page-1" stroke="none" stroke-width="1" fill="none" fill-rule="evenodd">
        <g id="Tablet-Portrait-Copy-15" transform="translate(-24.000000, -15.000000)">
            <g id="Page-1-Copy-2" transform="translate(24.000000, 15.000000)">
                <path d="M15.5957,15.3523 C13.3867,14.4563 12.4067,16.8003 11.2087,17.2193 C8.4727,18.1793 6.3427,14.2023 6.3427,14.2023 C6.3427,14.2023 7.2347,13.8563 8.3427,13.0403 C10.0227,11.8003 10.7127,11.0343 12.1817,10.5603 C13.3747,10.6993 15.1147,13.0093 15.5957,15.3523 Z" id="Fill-1" fill="#23B175"></path>
                <path d="M18.8369,18.3387 C20.8719,14.3977 24.2869,12.4167 24.2869,12.4167 C24.2869,12.4167 22.5349,10.7667 19.5179,9.9497 C15.8889,8.9707 13.4249,9.9597 13.4249,9.9597 C13.4249,9.9597 16.0289,11.2857 16.8149,15.6187 C17.2739,18.1587 18.7149,18.3387 18.8369,18.3387" id="Fill-3" fill="#EC5956"></path>
                <path d="M14.0625,0.0252 C12.4335,-0.0658 10.6595,0.0862 8.7355,0.5652 C3.1985,1.9512 -2.3035,7.8412 0.9955,12.4172 C3.9985,16.3592 8.5735,11.0162 11.7185,9.4152 C10.4945,6.2682 11.6665,2.8782 14.0625,0.0252" id="Fill-5" fill="#27A8E0"></path>
                <path d="M15.3926,0.157 C13.0266,2.783 11.7886,5.928 12.7526,8.97 C19.5276,6.439 25.1066,11.549 25.1066,11.549 C25.1066,11.549 26.4596,8.044 23.7846,4.701 C22.1766,2.692 19.2936,0.717 15.3926,0.157" id="Fill-7" fill="#FAAD40"></path>
                <path d="M34.5556,8.9705 L34.5556,12.8205 C34.9096,12.8625 35.5096,12.9235 36.2406,12.9235 C37.9676,12.9235 38.9056,12.1975 38.9056,10.8235 C38.9056,9.5945 37.9676,8.9705 36.3646,8.9705 L34.5556,8.9705 Z M34.5556,3.0615 L34.5556,6.7435 L36.2806,6.7435 C37.4676,6.7435 38.4456,6.1425 38.4456,4.8105 C38.4456,3.6235 37.5306,2.9995 36.1556,2.9995 C35.5736,2.9995 35.0126,3.0215 34.5556,3.0615 L34.5556,3.0615 Z M31.9936,0.7095 C32.8076,0.6685 34.7426,0.6065 36.1976,0.6065 C39.6726,0.6065 40.9856,2.1885 40.9856,4.2065 C40.9856,5.8695 40.1516,6.9325 38.9056,7.5145 L38.9056,7.5555 C40.3386,7.9105 41.4636,9.0115 41.4636,10.9465 C41.4636,13.9435 39.1346,15.3185 36.0516,15.3185 C34.7196,15.3185 32.8506,15.2755 31.9936,15.2135 L31.9936,0.7095 Z" id="Fill-9" fill="#333333"></path>
                <polygon id="Fill-11" fill="#333333" points="43.289 15.2332 43.289 5.8702 45.681 5.8702 45.681 11.8002 50.051 5.8702 52.444 5.8702 52.444 15.2332 50.051 15.2332 50.051 9.3052 45.681 15.2332"></polygon>
                <path d="M60.0859,10.3221 L64.1219,15.2331 L61.0029,15.2331 L57.2959,10.5101 L60.6679,5.8701 L63.6859,5.8701 L60.0859,10.3221 Z M54.8219,15.2331 L57.2139,15.2331 L57.2139,5.8701 L54.8219,5.8701 L54.8219,15.2331 Z" id="Fill-13" fill="#333333"></path>
                <polygon id="Fill-15" fill="#333333" points="65.251 15.2332 65.251 5.8702 67.642 5.8702 67.642 11.8002 72.015 5.8702 74.406 5.8702 74.406 15.2332 72.015 15.2332 72.015 9.3052 67.642 15.2332"></polygon>
                <path d="M82.1328,15.2332 C80.7598,18.5852 79.8848,19.3952 78.5118,19.3952 C77.6588,19.3952 77.0348,19.0612 76.4928,18.6692 L77.2638,16.8562 C77.5128,17.0022 77.8668,17.1902 78.2398,17.1902 C78.8438,17.1902 79.2788,16.7122 79.6758,15.7342 L79.8848,15.2332 L75.5558,5.8702 L78.4268,5.8702 L80.6128,10.9892 C80.8028,11.4472 80.9268,11.8842 81.0708,12.3432 C81.1528,11.9062 81.2378,11.4472 81.4028,10.9682 L83.0898,5.8702 L85.8158,5.8702 L82.1328,15.2332 Z" id="Fill-17" fill="#333333"></path>
                <polygon id="Fill-19" fill="#333333" points="86.9658 5.8699 89.1288 5.8699 92.3118 9.7829 95.3298 5.8699 97.4328 5.8699 97.4328 15.2329 95.0368 15.2329 95.0368 9.5129 92.2728 13.0079 92.2088 13.0079 89.3578 9.5129 89.3578 15.2329 86.9658 15.2329"></polygon>
                <polygon id="Fill-21" fill="#333333" points="0.2656 22.3309 4.5846 22.3309 4.5846 22.9319 2.7446 22.9319 2.7446 27.5899 2.1056 27.5899 2.1056 22.9319 0.2656 22.9319"></polygon>
                <path d="M6.4609,22.9314 L6.4609,24.9584 C6.7169,24.9824 6.9649,24.9974 7.2279,24.9974 C8.0009,24.9974 8.4679,24.5994 8.4679,23.9384 C8.4679,23.3144 8.0919,22.9164 7.2579,22.9164 C7.0469,22.9164 6.7089,22.9234 6.4609,22.9314 L6.4609,22.9314 Z M5.8229,27.5894 L5.8229,22.3304 C6.1149,22.3304 6.8669,22.3154 7.1969,22.3154 C8.6989,22.3154 9.1429,23.1264 9.1429,23.9454 C9.1429,24.8014 8.5339,25.5984 7.2499,25.5984 C7.0389,25.5984 6.7239,25.5904 6.4609,25.5674 L6.4609,27.5894 L5.8229,27.5894 Z" id="Fill-23" fill="#333333"></path>
                <polygon id="Fill-25" fill="#333333" points="10.6806 22.3309 13.6476 22.3309 13.6476 22.9319 11.3196 22.9319 11.3196 24.6289 13.4226 24.6289 13.4226 25.2299 11.3196 25.2299 11.3196 26.9879 13.7226 26.9879 13.7226 27.5899 10.6806 27.5899"></polygon>
                <polygon id="Fill-27" fill="#333333" points="18.9053 25.2078 16.0133 25.2078 16.0133 27.5898 15.3743 27.5898 15.3743 22.3308 16.0133 22.3308 16.0133 24.6058 18.9053 24.6058 18.9053 22.3308 19.5433 22.3308 19.5433 27.5898 18.9053 27.5898"></polygon>
                <path d="M22.3887,25.3963 L24.2817,25.3963 L23.3347,23.1493 L22.3887,25.3963 Z M23.0797,22.3003 L23.6277,22.3003 L25.8887,27.5893 L25.2047,27.5893 L24.5307,25.9963 L22.1337,25.9963 L21.4637,27.5893 L20.8187,27.5893 L23.0797,22.3003 Z" id="Fill-29" fill="#333333"></path>
                <path d="M30.9424,24.8397 L33.1514,27.5897 L32.4074,27.5897 L30.2444,24.8467 L32.3254,22.3307 L33.0684,22.3307 L30.9424,24.8397 Z M29.4694,27.5897 L30.1094,27.5897 L30.1094,22.3307 L29.4694,22.3307 L29.4694,27.5897 Z M26.5184,22.3307 L27.2624,22.3307 L29.3424,24.8467 L27.1794,27.5897 L26.4354,27.5897 L28.6444,24.8467 L26.5184,22.3307 Z" id="Fill-31" fill="#333333"></path>
                <polygon id="Fill-33" fill="#333333" points="34.4639 22.3309 37.4309 22.3309 37.4309 22.9319 35.1019 22.9319 35.1019 24.6289 37.2049 24.6289 37.2049 25.2299 35.1019 25.2299 35.1019 26.9879 37.5059 26.9879 37.5059 27.5899 34.4639 27.5899"></polygon>
                <path d="M39.7959,22.9314 L39.7959,24.9584 C40.0509,24.9824 40.2989,24.9974 40.5619,24.9974 C41.3349,24.9974 41.8009,24.5994 41.8009,23.9384 C41.8009,23.3144 41.4259,22.9164 40.5909,22.9164 C40.3809,22.9164 40.0429,22.9234 39.7959,22.9314 L39.7959,22.9314 Z M39.1559,27.5894 L39.1559,22.3304 C39.4499,22.3304 40.2009,22.3154 40.5309,22.3154 C42.0339,22.3154 42.4769,23.1264 42.4769,23.9454 C42.4769,24.8014 41.8679,25.5984 40.5849,25.5984 C40.3739,25.5984 40.0589,25.5904 39.7959,25.5674 L39.7959,27.5894 L39.1559,27.5894 Z" id="Fill-35" fill="#333333"></path>
                <mask id="mask-2" fill="white">
                    <use xlink:href="#path-1"></use>
                </mask>
                <g id="Clip-38"></g>
                <path d="M48.146,27.5901 L48.785,27.5901 L48.785,22.3311 L48.146,22.3311 L48.146,27.5901 Z M44.653,24.8911 L44.653,26.9801 C44.856,26.9881 45.044,27.0031 45.284,27.0031 C46.148,27.0031 46.622,26.6271 46.622,25.8831 C46.622,25.2151 46.155,24.8461 45.308,24.8461 C45.135,24.8461 44.916,24.8621 44.653,24.8911 L44.653,24.8911 Z M44.653,24.2831 C44.939,24.2611 45.18,24.2461 45.353,24.2461 C46.674,24.2461 47.298,24.8771 47.298,25.8691 C47.298,26.9731 46.518,27.6041 45.21,27.6041 C44.76,27.6041 44.323,27.5901 44.016,27.5901 L44.016,22.3311 L44.653,22.3311 L44.653,24.2831 Z" id="Fill-37" fill="#333333" mask="url(#mask-2)"></path>
                <path d="M53.3945,26.9881 L56.0605,26.9881 L56.0605,22.9311 L54.2215,22.9311 L54.1535,23.8711 C54.0265,25.6801 53.5895,26.7481 53.3945,26.9881 L53.3945,26.9881 Z M52.1245,26.9881 L52.6885,26.9881 C52.9055,26.7171 53.4405,25.5841 53.5515,23.3831 L53.6055,22.3311 L56.7005,22.3311 L56.7005,26.9881 L57.4145,26.9881 L57.4145,28.5651 L56.8125,28.5651 L56.8125,27.5901 L52.7265,27.5901 L52.7265,28.5651 L52.1245,28.5651 L52.1245,26.9881 Z" id="Fill-39" fill="#333333" mask="url(#mask-2)"></path>
                <path d="M61.9931,22.9314 L60.0861,22.9314 L59.9951,23.9234 C59.6871,27.2664 58.9811,27.6954 58.1551,27.5894 L58.1631,26.9504 C58.5391,26.9884 59.1691,26.7994 59.4091,23.3824 L59.4841,22.3304 L62.6321,22.3304 L62.6321,27.5894 L61.9931,27.5894 L61.9931,22.9314 Z" id="Fill-40" fill="#333333" mask="url(#mask-2)"></path>
                <path d="M67.0469,25.034 L67.0469,22.931 C66.8739,22.924 66.5599,22.909 66.3339,22.909 C65.5149,22.909 65.0799,23.389 65.0799,24.013 C65.0799,24.569 65.5299,24.959 65.9879,25.034 L67.0469,25.034 Z M67.0469,25.637 L66.0639,25.637 L64.7029,27.59 L63.9829,27.59 L65.4399,25.523 C64.8989,25.305 64.4029,24.802 64.4029,24.051 C64.4029,23.104 65.0339,22.308 66.4529,22.308 C66.8069,22.308 67.3779,22.331 67.6859,22.331 L67.6859,27.59 L67.0469,27.59 L67.0469,25.637 Z" id="Fill-41" fill="#333333" mask="url(#mask-2)"></path>
                <polygon id="Fill-42" fill="#333333" mask="url(#mask-2)" points="71.7021 22.3309 72.3481 22.3309 74.3231 25.0269 76.2161 22.3309 76.8241 22.3309 76.8241 27.5899 76.1851 27.5899 76.1851 23.3379 74.3231 25.9509 74.2261 25.9509 72.3411 23.3589 72.3411 27.5899 71.7021 27.5899"></polygon>
                <path d="M81.0449,27.0633 C82.2469,27.0633 83.0499,26.1473 83.0499,24.9593 C83.0499,23.7353 82.1719,22.8563 81.0449,22.8563 C79.9019,22.8563 79.0389,23.7353 79.0389,24.9593 C79.0389,26.1533 79.9179,27.0633 81.0449,27.0633 M81.0449,22.2553 C82.5689,22.2553 83.7269,23.3593 83.7269,24.9593 C83.7269,26.5213 82.5689,27.6643 81.0449,27.6643 C79.5199,27.6643 78.3629,26.5593 78.3629,24.9593 C78.3629,23.4343 79.4829,22.2553 81.0449,22.2553" id="Fill-43" fill="#333333" mask="url(#mask-2)"></path>
                <path d="M84.7764,26.8377 L85.1304,26.4097 C85.4674,26.8087 86.0304,27.0637 86.4594,27.0637 C87.1424,27.0637 87.6534,26.7097 87.6534,26.0567 C87.6534,25.5377 87.2774,25.1987 86.6244,25.1987 L86.0154,25.1987 L86.0154,24.5997 L86.5784,24.5997 C87.0224,24.5997 87.4504,24.2387 87.4504,23.7117 C87.4504,23.1427 87.0374,22.8567 86.4974,22.8567 C85.9784,22.8567 85.6174,23.0667 85.3014,23.4417 L84.9264,23.0217 C85.2794,22.5637 85.8804,22.2557 86.5644,22.2557 C87.4724,22.2557 88.0894,22.7587 88.0894,23.6527 C88.0894,24.0957 87.8404,24.5917 87.3304,24.8547 L87.3304,24.8767 C87.9684,24.9977 88.2914,25.5157 88.2914,26.1167 C88.2914,27.0857 87.4594,27.6637 86.4974,27.6637 C85.6924,27.6637 85.0544,27.2587 84.7764,26.8377" id="Fill-44" fill="#333333" mask="url(#mask-2)"></path>
                <polygon id="Fill-45" fill="#333333" mask="url(#mask-2)" points="89.9805 22.3309 92.9095 22.3309 92.9095 22.9319 90.6185 22.9319 90.6185 27.5899 89.9805 27.5899"></polygon>
                <path d="M94.3652,25.3963 L96.2602,25.3963 L95.3132,23.1493 L94.3652,25.3963 Z M95.0562,22.3003 L95.6052,22.3003 L97.8652,27.5893 L97.1822,27.5893 L96.5072,25.9963 L94.1102,25.9963 L93.4422,27.5893 L92.7962,27.5893 L95.0562,22.3003 Z" id="Fill-46" fill="#333333" mask="url(#mask-2)"></path>
            </g>
        </g>
    </g>
</svg>